<?xml version="1.0" encoding="UTF-8"?>
<svg version="1.1" xmlns="http://www.w3.org/2000/svg" width="500" height="500">
<path d="M0 0 C4.1256291 1.61480471 6.8068465 4.62298257 9.8125 7.75 C14.04096167 12.07145166 18.3150586 16.16686613 23 20 C22.46401198 24.2501585 21.10298701 26.50020205 18.4375 29.8125 C3.08621703 50.34518547 -1.13101432 74.14011995 1.58496094 99.38525391 C2.30096107 103.89605474 3.69784679 108.13004511 5.1875 112.4375 C5.66050537 113.81989868 5.66050537 113.81989868 6.14306641 115.23022461 C10.2506291 126.92344472 17.0018848 142.19965326 28 149 C30.60962218 149.45140259 30.60962218 149.45140259 33.49656677 149.38768005 C34.61392212 149.39758469 35.73127747 149.40748932 36.88249207 149.41769409 C38.71460991 149.41094162 38.71460991 149.41094162 40.58374023 149.40405273 C41.87351776 149.41091599 43.16329529 149.41777924 44.49215698 149.42485046 C48.02733911 149.44279501 51.56227321 149.4416111 55.09748721 149.43590808 C58.04980477 149.43281794 61.00207457 149.43890675 63.95438534 149.44494683 C70.91990732 149.45899481 77.88530666 149.45742866 84.85083008 149.44604492 C92.03435374 149.43456425 99.21750405 149.44863759 106.40097851 149.4754414 C112.57096435 149.49760071 118.74083302 149.50423526 124.91085583 149.49836498 C128.59484583 149.4949946 132.27859652 149.49741551 135.96255302 149.51461601 C140.07089747 149.53296071 144.17851585 149.51889585 148.28686523 149.50170898 C149.5062529 149.51137695 150.72564056 149.52104492 151.98197937 149.53100586 C158.40863898 149.54422159 158.40863898 149.54422159 164.20094299 147.07791138 C166.56132179 144.36555666 166.56132179 144.36555666 168.71875 141.49609375 C169.1737085 140.84358643 169.62866699 140.1910791 170.09741211 139.51879883 C170.56026611 138.83197021 171.02312012 138.1451416 171.5 137.4375 C171.98412354 136.72295654 172.46824707 136.00841309 172.96704102 135.2722168 C186.09166486 115.53088189 191.39941132 90.36810735 186.81982422 67.00585938 C183.74499564 52.95457342 178.103265 37.62910308 168.1875 26.8984375 C166 24 166 24 165.734375 21.5625 C167.72750223 17.52703253 170.90583697 14.94739793 174.25 12 C175.58920067 10.79239708 176.92775503 9.58407699 178.265625 8.375 C178.90306641 7.80394531 179.54050781 7.23289063 180.19726562 6.64453125 C182.54520947 4.50263665 184.77899052 2.27266086 187 0 C195.86592965 2.95530988 204.03867595 20.12695784 207.96191406 27.90771484 C221.35163505 55.73773493 226.16570393 90.36250622 216.16040039 120.12744141 C215.46284372 122.09407084 214.73576731 124.04736833 214 126 C213.74589355 126.69722168 213.49178711 127.39444336 213.22998047 128.11279297 C206.13116881 147.40711062 193.27430316 169.25311846 176 181 C172.86147594 181.5117445 172.86147594 181.5117445 169.26445007 181.52812195 C168.60020344 181.53647861 167.93595681 181.54483527 167.25158149 181.55344516 C165.03289429 181.57636591 162.81522025 181.57081593 160.59643555 181.56518555 C159.002776 181.57552065 157.40912645 181.58751014 155.81549072 181.60102844 C151.49092901 181.63207224 147.16670055 181.63735271 142.84204078 181.63609672 C139.22884522 181.6369275 135.61572186 181.64917276 132.00254852 181.66104633 C123.47536714 181.68842167 114.94835861 181.69374895 106.42114258 181.6862793 C97.6327678 181.67904107 88.84519575 181.71243823 80.05699509 181.76533669 C72.50519475 181.80914762 64.95365344 181.82583062 57.40172797 181.8213008 C52.89421152 181.8189808 48.38734342 181.82725426 43.87994957 181.86237144 C39.63847365 181.89438222 35.398324 181.89247624 31.15682983 181.86492729 C29.60405499 181.86048054 28.05119201 181.86788015 26.49854469 181.88827133 C13.32768714 182.04946801 13.32768714 182.04946801 8.18318176 177.61750793 C7.08835217 176.44224705 6.02286911 175.23839766 5 174 C3.65228516 172.64455078 3.65228516 172.64455078 2.27734375 171.26171875 C-11.20717383 156.42649824 -20.64745358 139.95517883 -27 121 C-27.31710938 120.08605469 -27.63421875 119.17210937 -27.9609375 118.23046875 C-36.82550713 91.06626777 -33.35101059 59.83848463 -22 34 C-21.73316406 33.38930664 -21.46632812 32.77861328 -21.19140625 32.14941406 C-17.19428494 23.19414109 -12.08491566 15.65023817 -6 8 C-4.80703118 6.42078308 -3.61875021 4.83800146 -2.4375 3.25 C-1.625 2.16666667 -0.8125 1.08333333 0 0 Z " fill="#FDF9FB" transform="translate(156,180)"/>
<path d="M0 0 C1.54726285 0.11751746 3.09489917 0.23022935 4.6428833 0.33782959 C6.77600081 0.49042686 8.90547475 0.66798372 11.03591919 0.85385132 C12.24578491 0.9522229 13.45565063 1.05059448 14.70217896 1.15194702 C18.29431503 1.98427471 19.52190829 3.00407538 21.78201294 5.86557007 C23.08067166 8.21432702 24.24026075 10.49375231 25.34451294 12.92807007 C25.63519653 13.53328491 25.92588013 14.13849976 26.22537231 14.76205444 C30.90328206 24.88182788 32.23680324 34.27329575 32.06326294 45.40292358 C32.03157564 47.45640914 32.02222579 49.50912768 32.01638794 51.56283569 C31.93696151 61.55567292 31.93696151 61.55567292 30.78201294 63.86557007 C28.49646319 64.07443232 26.20130144 64.1805585 23.90701294 64.24057007 C11.26085365 64.86268435 0.61656677 69.42129463 -8.10079956 78.91635132 C-9.5918666 80.84574711 -10.9290876 82.79665702 -12.21798706 84.86557007 C-12.60599487 85.46369507 -12.99400269 86.06182007 -13.39376831 86.67807007 C-15.82491413 90.63862762 -17.12459963 94.40090474 -18.21798706 98.86557007 C-21.53611596 99.86353586 -24.53907343 99.98661118 -27.99630737 99.97909546 C-29.15720886 99.97901993 -30.31811035 99.9789444 -31.51419067 99.97886658 C-33.38624176 99.97112465 -33.38624176 99.97112465 -35.29611206 99.96322632 C-36.57782288 99.96181137 -37.85953369 99.96039642 -39.18008423 99.9589386 C-42.57982346 99.95512907 -45.97951966 99.94531221 -49.37924194 99.93423462 C-52.85152606 99.9239868 -56.32381716 99.91943377 -59.79611206 99.91439819 C-66.60342135 99.90368848 -73.41070214 99.88663091 -80.21798706 99.86557007 C-80.6239209 98.94134247 -80.6239209 98.94134247 -81.03805542 97.9984436 C-81.3952063 97.18921448 -81.75235718 96.37998535 -82.12033081 95.54623413 C-82.47345337 94.7444574 -82.82657593 93.94268066 -83.19039917 93.11660767 C-89.1498153 80.06189001 -97.05938213 72.28923012 -110.17501831 66.62728882 C-114.72481773 64.93090089 -119.14241574 64.58129299 -123.96798706 64.30307007 C-125.01406128 64.23829468 -125.01406128 64.23829468 -126.08126831 64.17221069 C-127.79330629 64.06667411 -129.50562267 63.96567097 -131.21798706 63.86557007 C-134.32983525 42.08263272 -131.02525164 21.62341651 -119.21798706 2.86557007 C-115.99843445 1.25579376 -112.44005379 1.23773518 -108.89767456 0.87728882 C-107.62813431 0.74685432 -107.62813431 0.74685432 -106.33294678 0.61378479 C-96.68535543 -0.33821822 -87.02607675 -0.88727619 -77.34298706 -1.32192993 C-75.92350266 -1.38638809 -75.92350266 -1.38638809 -74.4753418 -1.45214844 C-49.57000762 -2.54550262 -24.85114276 -1.89273441 0 0 Z M-68.15939331 36.11947632 C-71.16666494 41.07980997 -70.74496096 47.27809679 -70.21798706 52.86557007 C-68.59191986 59.29293029 -64.83356467 62.3361991 -59.33908081 65.73666382 C-54.68370467 68.21438703 -50.37762054 68.46766668 -45.21798706 67.86557007 C-38.54254822 65.67612132 -33.83764388 61.7697823 -30.40548706 55.61557007 C-28.34685119 49.11461469 -28.42101912 43.03999953 -31.11642456 36.71713257 C-34.31916437 31.33380395 -39.45898584 28.2035131 -45.32345581 26.34213257 C-54.46482546 24.04265402 -62.49352233 29.16955525 -68.15939331 36.11947632 Z " fill="#F2F0F1" transform="translate(300.2179870605469,217.13442993164063)"/>
<path d="M0 0 C0.74797852 0.24669434 1.49595703 0.49338867 2.26660156 0.74755859 C15.90086589 5.3921041 28.79763385 11.5795957 40.375 20.1875 C40.92905518 20.59137939 41.48311035 20.99525879 42.05395508 21.41137695 C44.36430524 23.21216144 45.8476133 24.59824569 46.89575195 27.36157227 C47 30 47 30 45.43286133 32.29589844 C44.6570874 33.0593457 43.88131348 33.82279297 43.08203125 34.609375 C42.23962891 35.44597656 41.39722656 36.28257812 40.52929688 37.14453125 C39.63275391 38.00433594 38.73621094 38.86414063 37.8125 39.75 C36.93529297 40.62527344 36.05808594 41.50054687 35.15429688 42.40234375 C27.72473918 49.67958705 27.72473918 49.67958705 24 50 C21.765625 48.62890625 21.765625 48.62890625 19.25 46.5625 C-0.88057961 31.27074497 -25.46918165 25.41157989 -50.47363281 28.28417969 C-65.7358335 30.75180034 -79.42722075 37.47158623 -92.109375 46.08203125 C-94.37541521 47.58557955 -96.53596142 48.8696522 -99 50 C-106.83514917 43.52748547 -113.86788775 36.22226536 -121 29 C-114.73358325 15.51038139 -93.05928425 7.05773289 -79.8125 1.8125 C-77.88521617 1.17649634 -75.94621698 0.57546771 -74 0 C-72.79859375 -0.37253906 -71.5971875 -0.74507812 -70.359375 -1.12890625 C-49.06836374 -6.98851805 -20.99635447 -6.98393592 0 0 Z " fill="#FCF8FA" transform="translate(287,143)"/>
<path d="M0 0 C3.2883921 2.71292348 3.90851499 4.34816929 4.5 8.5625 C4 12 4 12 2.5625 14.4375 C-1.23091004 16.7505549 -4.67096391 16.78782091 -9 16 C-11.84932365 14.07670654 -12.71560395 12.73942974 -13.9375 9.5625 C-14.01997067 6.18120249 -13.0198841 4.66913256 -11 2 C-7.33000925 -0.4466605 -4.26464882 -0.8237551 0 0 Z " fill="#F4EFEF" transform="translate(255,256)"/>
<path d="M0 0 C0.33 0 0.66 0 1 0 C2.62042457 10.64494293 1.64517445 21.30995558 1 32 C5.29 32.66 9.58 33.32 14 34 C14 34.33 14 34.66 14 35 C9.05 35 4.1 35 -1 35 C-2.65468386 23.41721296 -3.06127682 11.37045674 0 0 Z " fill="#F4D3D7" transform="translate(170,246)"/>
<path d="M0 0 C-0.66 1.65 -1.32 3.3 -2 5 C-2.66 5 -3.32 5 -4 5 C-4 5.66 -4 6.32 -4 7 C-5.45736087 7.19491452 -6.91594593 7.38069358 -8.375 7.5625 C-9.18710938 7.66691406 -9.99921875 7.77132813 -10.8359375 7.87890625 C-13 8 -13 8 -15 7 C-14.6875 5.125 -14.6875 5.125 -14 3 C-13.01 2.34 -12.02 1.68 -11 1 C-10.4225 0.608125 -9.845 0.21625 -9.25 -0.1875 C-5.98886538 -1.36513195 -3.34634569 -0.64352802 0 0 Z " fill="#F3F1F1" transform="translate(256,259)"/>
<path d="M0 0 C29.34541547 -0.20638953 29.34541547 -0.20638953 41 1 C41 1.66 41 2.32 41 3 C34.73 3 28.46 3 22 3 C22 2.34 22 1.68 22 1 C14.74 1 7.48 1 0 1 C0 0.67 0 0.34 0 0 Z " fill="#F6CFD9" transform="translate(256,216)"/>
<path d="M0 0 C2.5 2.125 2.5 2.125 4 5 C4.25 8.3125 4.25 8.3125 4 11 C3.34 9.68 2.68 8.36 2 7 C1.54625 7.495 1.0925 7.99 0.625 8.5 C-1 10 -1 10 -3 10 C-3 9.34 -3 8.68 -3 8 C-2.34 8 -1.68 8 -1 8 C-1.33 6.35 -1.66 4.7 -2 3 C-7.01535052 3.32960216 -7.01535052 3.32960216 -11 6 C-11.66 6 -12.32 6 -13 6 C-10.44068572 0.09389011 -6.1801138 -1.20617915 0 0 Z " fill="#F2CFD9" transform="translate(255,256)"/>
<path d="M0 0 C0.66 0.33 1.32 0.66 2 1 C2.02690844 3.62506802 2.04679404 6.24986173 2.0625 8.875 C2.07087891 9.62136719 2.07925781 10.36773437 2.08789062 11.13671875 C2.11328125 16.7734375 2.11328125 16.7734375 1 19 C-3.95 19 -8.9 19 -14 19 C-14 18.67 -14 18.34 -14 18 C-13.22914063 17.96261719 -12.45828125 17.92523438 -11.6640625 17.88671875 C-10.15972656 17.78810547 -10.15972656 17.78810547 -8.625 17.6875 C-7.62726563 17.62949219 -6.62953125 17.57148438 -5.6015625 17.51171875 C-4.74304688 17.34285156 -3.88453125 17.17398437 -3 17 C-0.57520264 13.36280395 -0.61337423 11.14296518 -0.375 6.8125 C-0.30023438 5.54019531 -0.22546875 4.26789063 -0.1484375 2.95703125 C-0.09945313 1.98121094 -0.05046875 1.00539063 0 0 Z " fill="#F1C5CF" transform="translate(330,262)"/>
<path d="M0 0 C3.33333333 1.66666667 6.66666667 3.33333333 10 5 C10 5.99 10 6.98 10 8 C12.475 8.99 12.475 8.99 15 10 C15.33 12.97 15.66 15.94 16 19 C13.31008174 16.31008174 11.30532484 13.72157029 9.125 10.625 C6.31735683 6.71398414 3.56324072 3.2291869 0 0 Z " fill="#E8BBC8" transform="translate(201,288)"/>
<path d="M0 0 C0 0.33 0 0.66 0 1 C-0.56509277 1.07516846 -1.13018555 1.15033691 -1.71240234 1.2277832 C-4.2686859 1.57565022 -6.82164116 1.94380379 -9.375 2.3125 C-10.26445312 2.43044922 -11.15390625 2.54839844 -12.0703125 2.66992188 C-12.92109375 2.79560547 -13.771875 2.92128906 -14.6484375 3.05078125 C-15.43395996 3.16075439 -16.21948242 3.27072754 -17.02880859 3.3840332 C-19.38264671 3.89284252 -19.38264671 3.89284252 -21 7 C-21.33 6.01 -21.66 5.02 -22 4 C-20.29581112 1.70304977 -18.85571307 0.2293311 -16.046875 -0.5234375 C-10.55714938 -1.23364676 -5.4627706 -0.7803958 0 0 Z " fill="#FBD8E2" transform="translate(201,219)"/>
<path d="M0 0 C0.33 0.99 0.66 1.98 1 3 C0.01 3.33 -0.98 3.66 -2 4 C-3.40777651 5.52393782 -3.40777651 5.52393782 -4.625 7.375 C-5.05039063 7.98085937 -5.47578125 8.58671875 -5.9140625 9.2109375 C-7.16317148 11.11963572 -7.16317148 11.11963572 -8 14 C-8.99 13.01 -9.98 12.02 -11 11 C-9.52202738 7.32943063 -7.52384523 5.58914217 -4.375 3.25 C-3.55773437 2.63640625 -2.74046875 2.0228125 -1.8984375 1.390625 C-0.95871094 0.70226562 -0.95871094 0.70226562 0 0 Z " fill="#F0BCCB" transform="translate(177,161)"/>
<path d="M0 0 C1 2 2 4 3 6 C2.525625 6.391875 2.05125 6.78375 1.5625 7.1875 C-0.38580481 9.44753358 -0.51359982 11.08159892 -1 14 C-1.63437344 15.6792238 -2.29289322 17.35008418 -3 19 C-3.33 19 -3.66 19 -4 19 C-3.59060025 12.23784552 -2.43046191 6.32837252 0 0 Z " fill="#F0CFD5" transform="translate(130,225)"/>
<path d="M0 0 C0.66 0.33 1.32 0.66 2 1 C1.34773438 1.4846875 0.69546875 1.969375 0.0234375 2.46875 C-5.62165926 6.79832273 -10.09950995 11.03827537 -14 17 C-14.33 16.34 -14.66 15.68 -15 15 C-14.38125 14.0925 -13.7625 13.185 -13.125 12.25 C-11.0265938 9.25737435 -11.0265938 9.25737435 -10.0625 6.75 C-8.54478142 4.25022822 -6.7057908 3.96635386 -4 3 C-2.63634717 2.04175747 -1.29205831 1.05278825 0 0 Z " fill="#E0A0B5" transform="translate(301,286)"/>
<path d="M0 0 C-0.66 1.32 -1.32 2.64 -2 4 C-2.99 3.67 -3.98 3.34 -5 3 C-5 3.66 -5 4.32 -5 5 C-8.3 5 -11.6 5 -15 5 C-15 4.34 -15 3.68 -15 3 C-14.22914063 2.86722656 -13.45828125 2.73445313 -12.6640625 2.59765625 C-11.66117188 2.42105469 -10.65828125 2.24445313 -9.625 2.0625 C-8.62726563 1.88847656 -7.62953125 1.71445312 -6.6015625 1.53515625 C-4.17911891 1.03684578 -2.44449381 0 0 0 Z " fill="#F1C2CD" transform="translate(262,282)"/>
<path d="M0 0 C1.32 1.32 2.64 2.64 4 4 C3.67 4.99 3.34 5.98 3 7 C1.35 7.33 -0.3 7.66 -2 8 C-2 8.66 -2 9.32 -2 10 C-2.66 10 -3.32 10 -4 10 C-2.8905928 6.51329166 -1.73662334 3.22515763 0 0 Z " fill="#F4D8DD" transform="translate(178,225)"/>
<path d="M0 0 C0.33 0 0.66 0 1 0 C1.33 1.65 1.66 3.3 2 5 C6.29 5.66 10.58 6.32 15 7 C15 7.33 15 7.66 15 8 C10.05 8 5.1 8 0 8 C0 5.36 0 2.72 0 0 Z " fill="#F3BFC8" transform="translate(169,273)"/>
<path d="M0 0 C2 1.625 2 1.625 4 4 C4.25 7.25 4.25 7.25 4 10 C3.34 8.68 2.68 7.36 2 6 C1.54625 6.495 1.0925 6.99 0.625 7.5 C-1 9 -1 9 -3 9 C-3 8.34 -3 7.68 -3 7 C-2.34 7 -1.68 7 -1 7 C-0.67 4.69 -0.34 2.38 0 0 Z " fill="#EBCBD1" transform="translate(255,257)"/>
<path d="M0 0 C2.32240046 2.85021875 3.93906527 5.46355091 5 9 C4.625 11.3125 4.625 11.3125 4 13 C3.67 11.68 3.34 10.36 3 9 C2.34 9 1.68 9 1 9 C-1.125 2.25 -1.125 2.25 0 0 Z " fill="#F4C6D1" transform="translate(324,229)"/>
<path d="M0 0 C0.33 1.32 0.66 2.64 1 4 C0.01 4.33 -0.98 4.66 -2 5 C-2.68025637 6.99541868 -3.34490497 8.99617991 -4 11 C-6.125 13.875 -6.125 13.875 -8 16 C-7.43555175 11.65136348 -5.84572036 8.82172345 -3.4375 5.1875 C-2.79683594 4.21167969 -2.15617188 3.23585937 -1.49609375 2.23046875 C-0.75552734 1.12638672 -0.75552734 1.12638672 0 0 Z " fill="#F5C5D2" transform="translate(144,196)"/>
<path d="M0 0 C-1.485 5.445 -1.485 5.445 -3 11 C-3.66 11 -4.32 11 -5 11 C-4.8864371 9.35333797 -4.75882619 7.70763918 -4.625 6.0625 C-4.55539062 5.14597656 -4.48578125 4.22945313 -4.4140625 3.28515625 C-4.27742188 2.53105469 -4.14078125 1.77695312 -4 1 C-2 0 -2 0 0 0 Z " fill="#F8D6DF" transform="translate(285,305)"/>
<path d="M0 0 C0.33 0 0.66 0 1 0 C0.22095672 10.55808656 0.22095672 10.55808656 -2 15 C-2.33 15 -2.66 15 -3 15 C-3.22552339 9.36191513 -2.52663487 5.05326974 0 0 Z " fill="#F0C9D3" transform="translate(373,288)"/>
<path d="M0 0 C0.99 0.33 1.98 0.66 3 1 C3 1.66 3 2.32 3 3 C-0.3 4.32 -3.6 5.64 -7 7 C-7 6.01 -7 5.02 -7 4 C-5.02 3.67 -3.04 3.34 -1 3 C-0.67 2.01 -0.34 1.02 0 0 Z " fill="#F8D2DC" transform="translate(244,241)"/>
<path d="M0 0 C0.33 1.32 0.66 2.64 1 4 C-1.97 6.475 -1.97 6.475 -5 9 C-5.33 8.01 -5.66 7.02 -6 6 C-4 4 -2 2 0 0 Z " fill="#F1DAE1" transform="translate(268,275)"/>
<path d="M0 0 C3 1 3 1 5 4 C6.96361864 4.57748803 6.96361864 4.57748803 9.125 4.6875 C11.043125 4.8421875 11.043125 4.8421875 13 5 C13 5.33 13 5.66 13 6 C4.85614849 6.62645012 4.85614849 6.62645012 1.4375 4.125 C0 2 0 2 0 0 Z " fill="#F6CCD4" transform="translate(242,266)"/>
<path d="M0 0 C4.29 0 8.58 0 13 0 C13 0.33 13 0.66 13 1 C9.37 1 5.74 1 2 1 C2 1.66 2 2.32 2 3 C1.01 3 0.02 3 -1 3 C-0.67 2.01 -0.34 1.02 0 0 Z " fill="#FBE2E9" transform="translate(314,279)"/>
<path d="M0 0 C2.31 0.66 4.62 1.32 7 2 C4.38058783 3.74627478 2.96175123 4.38722388 0 5 C-0.5625 3.0625 -0.5625 3.0625 -1 1 C-0.67 0.67 -0.34 0.34 0 0 Z " fill="#F6D7DD" transform="translate(305,280)"/>
<path d="M0 0 C3.36720387 1.39332574 4.9859524 2.9789286 7 6 C6.67 6.66 6.34 7.32 6 8 C1.2 4.55384615 1.2 4.55384615 0.1875 1.75 C0.125625 1.1725 0.06375 0.595 0 0 Z " fill="#F2DCE2" transform="translate(230,274)"/>
<path d="M0 0 C1.65 0.33 3.3 0.66 5 1 C1.8745041 3.64465038 -1.08788267 4.84414715 -5 6 C-3.35 4.02 -1.7 2.04 0 0 Z " fill="#EAACBA" transform="translate(209,176)"/>
<path d="M0 0 C5.57142857 5.14285714 5.57142857 5.14285714 6 9 C0.42857143 3.85714286 0.42857143 3.85714286 0 0 Z " fill="#F6D0DB" transform="translate(353,192)"/>
<path d="M0 0 C0.33 0.99 0.66 1.98 1 3 C-1.97 5.475 -1.97 5.475 -5 8 C-5.66 7.67 -6.32 7.34 -7 7 C-4.69 4.69 -2.38 2.38 0 0 Z " fill="#FED7DF" transform="translate(339,184)"/>
<path d="M0 0 C0.99 0.33 1.98 0.66 3 1 C2.34 1 1.68 1 1 1 C0.34 2.32 -0.32 3.64 -1 5 C-2.32 4.67 -3.64 4.34 -5 4 C-2.6875 1.9375 -2.6875 1.9375 0 0 Z " fill="#F1C0D3" transform="translate(184,156)"/>
</svg>
